# xmcd CD database file
#
# Track frame offsets:
#	150
#	19864
#	38556
#	61000
#	78883
#	92282
#	108448
#	128337
#	148103
#	168326
#	184129
#	203595
#	224958
#	239052
#
# Disc length: 3490 seconds
#
# Revision: 0
# Processed by: cddbd v1.5.2PL0 Copyright (c) Steve Scherf et al.
# Submitted via: jetAudio 7
#
DISCID=b80da00e
DTITLE=Eddy Mitchell - Come back
DYEAR=1900
DGENRE=Blues
TTITLE0=Avoir 16 ans aujourd'hui
TTITLE1=Laisse le bon temps rouler
TTITLE2=L'esprit grande prairie
TTITLE3=Je suis vintage
TTITLE4=Mes colonies de vacances
TTITLE5=En garde à vue
TTITLE6=Tu fermes les yeux sur tout
TTITLE7=Un garçon facile
TTITLE8=Ça ressemble à du blues
TTITLE9=Surmonter la crise
TTITLE10=Pas besoin de ça
TTITLE11=L'esprit rock n'roll
TTITLE12=Come back
TTITLE13=L'esprit grande prairie
EXTD=
EXTT0=
EXTT1=
EXTT2=
EXTT3=
EXTT4=
EXTT5=
EXTT6=
EXTT7=
EXTT8=
EXTT9=
EXTT10=
EXTT11=
EXTT12=
EXTT13=
PLAYORDER=
